HIERARCHY
ROOT Hips
{
  OFFSET 53.0761 91.5558 6.22084
  CHANNELS 6 Xposition Yposition Zposition Zrotation Xrotation Yrotation
  JOINT spine
  {
    OFFSET 0 6.84637 0.3937
    CHANNELS 3 Zrotation Xrotation Yrotation
    JOINT spine1
    {
      OFFSET 0 9.49621 0
      CHANNELS 3 Zrotation Xrotation Yrotation
      JOINT spine2
      {
        OFFSET 0 9.09909 0
        CHANNELS 3 Zrotation Xrotation Yrotation
        JOINT Neck
        {
          OFFSET 0 23.3612 1.11378
          CHANNELS 3 Zrotation Xrotation Yrotation
          JOINT Head
          {
            OFFSET 0 7.05802 0
            CHANNELS 3 Zrotation Xrotation Yrotation
            End Site
            {
              OFFSET 0 17.0844 -5.63419
            }
          }
        }
        JOINT RightShoulder
        {
          OFFSET -3.83136 9.82631 -0.533491
          CHANNELS 3 Zrotation Xrotation Yrotation
          JOINT RightArm
          {
            OFFSET 0 12.8881 0
            CHANNELS 3 Zrotation Xrotation Yrotation
            JOINT RightArmRoll
            {
              OFFSET 0 6.50617 0
              CHANNELS 3 Zrotation Xrotation Yrotation
              JOINT RightForeArm
              {
                OFFSET 0 18.9501 0
                CHANNELS 3 Zrotation Xrotation Yrotation
                JOINT RightForeArmRoll
                {
                  OFFSET 0 7.30092 0
                  CHANNELS 3 Zrotation Xrotation Yrotation
                  JOINT RightHand
                  {
                    OFFSET 0 14.6514 0
                    CHANNELS 3 Zrotation Xrotation Yrotation
                    End Site
                    {
                      OFFSET 0 0 0
                    }
                  }
                }
              }
            }
          }
        }
        JOINT LeftShoulder
        {
          OFFSET 3.83136 9.82631 -0.533491
          CHANNELS 3 Zrotation Xrotation Yrotation
          JOINT LeftArm
          {
            OFFSET 0 12.8881 0
            CHANNELS 3 Zrotation Xrotation Yrotation
            JOINT LeftArmRoll
            {
              OFFSET 0 6.50617 0
              CHANNELS 3 Zrotation Xrotation Yrotation
              JOINT LeftForeArm
              {
                OFFSET 0 18.9501 0
                CHANNELS 3 Zrotation Xrotation Yrotation
                JOINT LeftForeArmRoll
                {
                  OFFSET 0 7.30092 0
                  CHANNELS 3 Zrotation Xrotation Yrotation
                  JOINT LeftHand
                  {
                    OFFSET 0 14.6514 0
                    CHANNELS 3 Zrotation Xrotation Yrotation
                    End Site
                    {
                      OFFSET 0 0 0
                    }
                  }
                }
              }
            }
          }
        }
      }
    }
  }
  JOINT RightUpLeg
  {
    OFFSET -6.06837 -1.11278 -0.933477
    CHANNELS 3 Zrotation Xrotation Yrotation
    JOINT RightUpLegRoll
    {
      OFFSET 0 17.1796 0
      CHANNELS 3 Zrotation Xrotation Yrotation
      JOINT RightLeg
      {
        OFFSET 0 -21.2743 0
        CHANNELS 3 Zrotation Xrotation Yrotation
        JOINT RightLegRoll
        {
          OFFSET 0 21.3439 0
          CHANNELS 3 Zrotation Xrotation Yrotation
          JOINT RightFoot
          {
            OFFSET 0 17.7652 0
            CHANNELS 3 Zrotation Xrotation Yrotation
            JOINT RightToeBase
            {
              OFFSET 0 14.8508 0
              CHANNELS 3 Zrotation Xrotation Yrotation
              End Site
              {
                OFFSET 0.0062947 7.19214 -0.829005
              }
            }
          }
        }
      }
    }
  }
  JOINT LeftUpLeg
  {
    OFFSET 6.06837 -1.11278 -0.933477
    CHANNELS 3 Zrotation Xrotation Yrotation
    JOINT LeftUpLegRoll
    {
      OFFSET 0 17.1797 0
      CHANNELS 3 Zrotation Xrotation Yrotation
      JOINT LeftLeg
      {
        OFFSET 0 21.2742 0
        CHANNELS 3 Zrotation Xrotation Yrotation
        JOINT LeftLegRoll
        {
          OFFSET 0 21.5412 0
          CHANNELS 3 Zrotation Xrotation Yrotation
          JOINT LeftFoot
          {
            OFFSET 0 17.5679 0
            CHANNELS 3 Zrotation Xrotation Yrotation
            JOINT LeftToeBase
            {
              OFFSET 0 14.8508 0
              CHANNELS 3 Zrotation Xrotation Yrotation
              End Site
              {
                OFFSET -0.0282102 7.19214 -0.829005
              }
            }
          }
        }
      }
    }
  }
}
MOTION
Frames: 13
Frame Time: 0.00208333
52.9558 91.5039 5.88244 -2.88098 6.52408 0.360608 -0.803124 -4.61354 -0.0492068 -1.60756 -5.22405 -0.0711632 -1.6048 -3.57936 -0.0440897 37.3609 9.87185 -10.7675 -27.5639 13.2652 0.613757 33.6099 -24.4279 -20.892 -45.6998 35.0115 132.322 -6.21698e-007 1.46346e-006 -1.0093e-006 -10.6664 17.7876 1.78449 8.61322e-007 -3.22962e-006 -3.00633 8.02923 -4.95143 0.697649 13.7575 -25.1122 43.9345 56.7344 38.9009 -167.588 -1.91826e-007 9.45429e-007 3.62357e-006 23.7239 15.3043 -8.85599 5.50518e-006 -5.42937e-006 3.00941 -8.02894 -4.95143 -0.69768 179.393 8.91059 -2.27264 180 7.01593e-015 179.148 178.78 3.93123 179.939 -1.98412e-006 2.66227e-006 0.0402918 -18.8099 68.1806 19.6941 8.1365 25.2327 -3.48774 -171.769 6.41929 -1.69675 4.54188e-006 -4.6773e-006 -0.929413 -1.88992 -5.20748 0.0312477 -1.35771e-006 1.24203e-006 -0.0763466 19.0278 68.5613 -19.9964 -8.13649 25.2327 3.48774 
52.9585 91.5078 5.88769 -2.87489 6.4972 0.36637 -0.803358 -4.61189 -0.0475914 -1.60797 -5.22097 -0.0679997 -1.60525 -3.57628 -0.0409213 37.2486 9.80077 -10.6891 -27.4695 13.3668 0.660039 33.5414 -24.4191 -20.8997 -45.7954 35.0524 132.489 -6.21698e-007 1.46346e-006 -1.0093e-006 -10.6622 17.8422 1.79312 8.61322e-007 -3.22962e-006 -3.00633 8.02923 -4.95143 0.697649 13.7624 -25.1001 43.9087 56.8339 38.8999 -167.638 -1.91826e-007 9.45429e-007 3.62357e-006 23.6913 15.3194 -8.84425 5.50518e-006 -5.42937e-006 3.00942 -8.02894 -4.95143 -0.69768 179.387 8.87752 -2.26488 180 7.01593e-015 179.147 178.779 3.92819 179.939 -1.98412e-006 2.66227e-006 0.0402795 -18.8097 68.1804 19.6939 8.1365 25.2327 -3.48774 -171.775 6.39391 -1.69426 4.54188e-006 -4.6773e-006 -0.930091 -1.88944 -5.20888 0.0314438 -1.35771e-006 1.24203e-006 -0.0762217 19.0238 68.5566 -19.9921 -8.13649 25.2327 3.48774 
52.9559 91.5075 5.88792 -2.8702 6.47223 0.372632 -0.803391 -4.61057 -0.0460267 -1.60805 -5.21865 -0.0647837 -1.60536 -3.57396 -0.0377074 37.1603 9.73211 -10.6205 -27.4046 13.4591 0.702884 33.4767 -24.4099 -20.9062 -45.8856 35.0934 132.647 -6.21698e-007 1.46346e-006 -1.0093e-006 -10.6569 17.8959 1.80118 8.61322e-007 -3.22962e-006 -3.00633 8.02923 -4.95143 0.697649 13.7687 -25.0866 43.8813 56.9302 38.9038 -167.69 -1.91826e-007 9.45429e-007 3.62357e-006 23.6583 15.3362 -8.83309 5.50518e-006 -5.42937e-006 3.00943 -8.02894 -4.95143 -0.69768 179.381 8.84581 -2.25845 180 7.01593e-015 179.147 178.777 3.92459 179.939 -1.98412e-006 2.66227e-006 0.0402672 -18.8094 68.1802 19.6937 8.1365 25.2327 -3.48774 -171.78 6.37215 -1.69307 4.54188e-006 -4.6773e-006 -0.93068 -1.88936 -5.21292 0.0316231 -1.35771e-006 1.24203e-006 -0.0761082 19.0207 68.5529 -19.9888 -8.13649 25.2327 3.48774 
52.9571 91.5073 5.89362 -2.86672 6.44855 0.379406 -0.803244 -4.60935 -0.0445104 -1.60784 -5.21662 -0.0615246 -1.6052 -3.57193 -0.0344561 37.0897 9.66123 -10.558 -27.3625 13.5484 0.74403 33.4165 -24.4007 -20.9116 -45.9719 35.1344 132.795 -6.21698e-007 1.46346e-006 -1.0093e-006 -10.6503 17.9474 1.80841 8.61322e-007 -3.22962e-006 -3.00633 8.02923 -4.95143 0.697649 13.7746 -25.0726 43.8524 57.0246 38.9115 -167.744 -1.91826e-007 9.45429e-007 3.62357e-006 23.6244 15.3542 -8.82209 5.50518e-006 -5.42937e-006 3.00944 -8.02894 -4.95143 -0.69768 179.378 8.81472 -2.25309 180 7.01593e-015 179.146 178.776 3.92027 179.939 -1.98412e-006 2.66227e-006 0.0402549 -18.8091 68.18 19.6935 8.1365 25.2327 -3.48774 -171.783 6.35344 -1.69304 4.54188e-006 -4.6773e-006 -0.931196 -1.88968 -5.2195 0.0317969 -1.35771e-006 1.24203e-006 -0.0760103 19.0184 68.5501 -19.9862 -8.13649 25.2327 3.48774 
52.9559 91.5084 5.89686 -2.86431 6.42602 0.386664 -0.802932 -4.60821 -0.0430416 -1.60736 -5.21485 -0.0582373 -1.60476 -3.57016 -0.031182 37.0347 9.58892 -10.501 -27.3407 13.6343 0.783636 33.3601 -24.3914 -20.916 -46.0539 35.1756 132.935 -6.21698e-007 1.46346e-006 -1.0093e-006 -10.6427 17.9966 1.81488 8.61322e-007 -3.22962e-006 -3.00633 8.02923 -4.95143 0.697649 13.7805 -25.0579 43.822 57.1164 38.9232 -167.798 -1.91826e-007 9.45429e-007 3.62357e-006 23.5897 15.3732 -8.81115 5.50518e-006 -5.42937e-006 3.00945 -8.02894 -4.95143 -0.69768 179.375 8.78425 -2.2487 180 7.01593e-015 179.146 178.776 3.91539 179.939 -1.98412e-006 2.66227e-006 0.0402426 -18.8087 68.1797 19.6932 8.1365 25.2327 -3.48774 -171.784 6.33744 -1.69404 4.54188e-006 -4.6773e-006 -0.931648 -1.89032 -5.22829 0.0319669 -1.35771e-006 1.24203e-006 -0.0759254 19.0167 68.548 -19.9844 -8.13649 25.2327 3.48774 
52.9536 91.5076 5.90071 -2.86287 6.40453 0.394378 -0.802467 -4.60716 -0.0416195 -1.60662 -5.21331 -0.0549369 -1.60406 -3.56862 -0.0279 36.9936 9.51596 -10.4488 -27.3365 13.7166 0.821861 33.3068 -24.382 -20.9194 -46.1309 35.2173 133.066 -6.21698e-007 1.46346e-006 -1.0093e-006 -10.6343 18.0434 1.82069 8.61322e-007 -3.22962e-006 -3.00633 8.02923 -4.95143 0.697649 13.7864 -25.0424 43.7899 57.2049 38.9393 -167.852 -1.91826e-007 9.45429e-007 3.62357e-006 23.5541 15.3927 -8.80019 5.50518e-006 -5.42937e-006 3.00946 -8.02894 -4.95143 -0.69768 179.374 8.75443 -2.24518 180 7.01593e-015 179.146 178.775 3.91008 179.939 -1.98412e-006 2.66227e-006 0.0402304 -18.8083 68.1794 19.6928 8.1365 25.2327 -3.48774 -171.784 6.32381 -1.69593 4.54188e-006 -4.6773e-006 -0.932042 -1.89124 -5.23901 0.0321346 -1.35771e-006 1.24203e-006 -0.0758507 19.0156 68.5466 -19.9833 -8.13649 25.2327 3.48774 
52.9533 91.5081 5.90317 -2.86227 6.38395 0.402518 -0.801862 -4.60618 -0.0402431 -1.60563 -5.21196 -0.0516385 -1.60312 -3.56727 -0.0246248 36.9642 9.44313 -10.4007 -27.3474 13.7948 0.858866 33.2559 -24.3722 -20.922 -46.2024 35.2596 133.188 -6.21698e-007 1.46346e-006 -1.0093e-006 -10.6255 18.0877 1.82591 8.61322e-007 -3.22962e-006 -3.00633 8.02923 -4.95143 0.697649 13.7926 -25.026 43.756 57.2895 38.9598 -167.904 -1.91826e-007 9.45429e-007 3.62357e-006 23.5173 15.4125 -8.78911 5.50518e-006 -5.42937e-006 3.00947 -8.02894 -4.95143 -0.69768 179.374 8.72527 -2.2424 180 7.01593e-015 179.146 178.775 3.90451 179.939 -1.98412e-006 2.66227e-006 0.0402181 -18.8079 68.1791 19.6925 8.1365 25.2327 -3.48774 -171.783 6.31223 -1.69859 4.54188e-006 -4.6773e-006 -0.932386 -1.89238 -5.25132 0.032302 -1.35771e-006 1.24203e-006 -0.0757838 19.015 68.5458 -19.9827 -8.13649 25.2327 3.48774 
52.9506 91.5056 5.90708 -2.86239 6.36415 0.411056 -0.801129 -4.60526 -0.0389115 -1.60442 -5.21077 -0.0483571 -1.60195 -3.56608 -0.021371 36.9447 9.37121 -10.3562 -27.3708 13.8687 0.894808 33.2066 -24.3621 -20.9238 -46.2681 35.303 133.303 -6.21698e-007 1.46346e-006 -1.0093e-006 -10.6165 18.1294 1.83064 8.61322e-007 -3.22962e-006 -3.00633 8.02923 -4.95143 0.697649 13.7994 -25.0085 43.7201 57.3695 38.9852 -167.955 -1.91826e-007 9.45429e-007 3.62357e-006 23.4794 15.432 -8.7778 5.50518e-006 -5.42937e-006 3.00948 -8.02894 -4.95143 -0.69768 179.374 8.69677 -2.24027 180 7.01593e-015 179.145 178.774 3.89882 179.939 -1.98412e-006 2.66227e-006 0.0402059 -18.8075 68.1787 19.6921 8.1365 25.2327 -3.48774 -171.781 6.30234 -1.70189 4.54188e-006 -4.6773e-006 -0.932687 -1.89367 -5.26493 0.0324706 -1.35771e-006 1.24203e-006 -0.0757219 19.0149 68.5455 -19.9825 -8.13649 25.2327 3.48774 
52.946 91.5054 5.90552 -2.86311 6.34501 0.419962 -0.800282 -4.60439 -0.0376239 -1.60299 -5.20971 -0.0451078 -1.60056 -3.56502 -0.0181534 36.9332 9.30098 -10.3146 -27.404 13.938 0.929849 33.1582 -24.3516 -20.9249 -46.3272 35.3475 133.41 -6.21698e-007 1.46346e-006 -1.0093e-006 -10.6076 18.1685 1.83495 8.61322e-007 -3.22962e-006 -3.00633 8.02923 -4.95143 0.697649 13.8068 -24.99 43.6819 57.4444 39.0155 -168.002 -1.91826e-007 9.45429e-007 3.62357e-006 23.4404 15.4511 -8.76616 5.50518e-006 -5.42937e-006 3.00949 -8.02894 -4.95143 -0.69768 179.376 8.66897 -2.23868 180 7.01593e-015 179.145 178.774 3.89313 179.939 -1.98412e-006 2.66227e-006 0.0401936 -18.807 68.1783 19.6917 8.1365 25.2327 -3.48774 -171.778 6.29383 -1.70568 4.54188e-006 -4.6773e-006 -0.932952 -1.89507 -5.27953 0.0326422 -1.35771e-006 1.24203e-006 -0.0756625 19.0151 68.5456 -19.9828 -8.13649 25.2327 3.48774 
52.9443 91.5058 5.90968 -2.86432 6.3264 0.429207 -0.799332 -4.60357 -0.0363792 -1.60135 -5.20874 -0.0419056 -1.59896 -3.56405 -0.0149867 36.9276 9.23321 -10.2753 -27.4445 14.0023 0.964147 33.11 -24.3405 -20.9253 -46.3794 35.3935 133.51 -6.21698e-007 1.46346e-006 -1.0093e-006 -10.599 18.2048 1.83894 8.61322e-007 -3.22962e-006 -3.00633 8.02923 -4.95143 0.697649 13.8152 -24.9702 43.6415 57.5133 39.0511 -168.046 -1.91826e-007 9.45429e-007 3.62357e-006 23.3999 15.4693 -8.7541 5.50518e-006 -5.42937e-006 3.0095 -8.02894 -4.95143 -0.69768 179.378 8.64186 -2.23751 180 7.01593e-015 179.145 178.774 3.88763 179.939 -1.98412e-006 2.66227e-006 0.0401814 -18.8066 68.1779 19.6913 8.1365 25.2327 -3.48774 -171.775 6.28633 -1.70985 4.54188e-006 -4.6773e-006 -0.933188 -1.89651 -5.2948 0.0328186 -1.35771e-006 1.24203e-006 -0.0756028 19.0156 68.546 -19.9833 -8.13649 25.2327 3.48774 
52.944 91.5056 5.90508 -2.86589 6.3082 0.438763 -0.798293 -4.60279 -0.0351767 -1.59951 -5.20783 -0.0387657 -1.59717 -3.56314 -0.0118857 36.9262 9.16869 -10.2375 -27.4896 14.0613 0.997862 33.0612 -24.3287 -20.9252 -46.424 35.4412 133.604 -6.21698e-007 1.46346e-006 -1.0093e-006 -10.5909 18.2384 1.84269 8.61322e-007 -3.22962e-006 -3.00633 8.02923 -4.95143 0.697649 13.8247 -24.949 43.5987 57.5756 39.0922 -168.085 -1.91826e-007 9.45429e-007 3.62357e-006 23.3581 15.4863 -8.74152 5.50518e-006 -5.42937e-006 3.00951 -8.02894 -4.95143 -0.69768 179.38 8.61546 -2.23667 180 7.01593e-015 179.145 178.774 3.88244 179.939 -1.98412e-006 2.66227e-006 0.0401692 -18.806 68.1774 19.6908 8.1365 25.2327 -3.48774 -171.771 6.27953 -1.71427 4.54188e-006 -4.6773e-006 -0.933402 -1.89794 -5.31043 0.0330015 -1.35771e-006 1.24203e-006 -0.0755403 19.0163 68.5467 -19.984 -8.13649 25.2327 3.48774 
52.9418 91.5028 5.9088 -2.86771 6.29028 0.448601 -0.797177 -4.60203 -0.0340154 -1.5975 -5.20696 -0.0357031 -1.59519 -3.56226 -0.00886502 36.9268 9.10818 -10.2007 -27.5368 14.1146 1.03115 33.0112 -24.3162 -20.9245 -46.4606 35.4908 133.692 -6.21698e-007 1.46346e-006 -1.0093e-006 -10.5837 18.2691 1.84628 8.61322e-007 -3.22962e-006 -3.00633 8.02923 -4.95143 0.697649 13.8356 -24.9263 43.5532 57.6307 39.1391 -168.118 -1.91826e-007 9.45429e-007 3.62357e-006 23.3149 15.5017 -8.72832 5.50518e-006 -5.42937e-006 3.00952 -8.02894 -4.95143 -0.69768 179.382 8.58979 -2.23603 180 7.01593e-015 179.145 178.774 3.87771 179.939 -1.98412e-006 2.66227e-006 0.040157 -18.8055 68.1769 19.6903 8.1365 25.2327 -3.48774 -171.767 6.27309 -1.7188 4.54188e-006 -4.6773e-006 -0.933602 -1.8993 -5.32613 0.0331925 -1.35771e-006 1.24203e-006 -0.0754724 19.0171 68.5474 -19.9849 -8.13649 25.2327 3.48774 
52.9377 91.5028 5.91322 -2.86966 6.27251 0.458692 -0.795998 -4.6013 -0.0328944 -1.59531 -5.20607 -0.0327327 -1.59305 -3.56137 -0.00593942 36.9276 9.05247 -10.1642 -27.5834 14.162 1.06418 32.9591 -24.3028 -20.9234 -46.4887 35.5425 133.773 -6.21698e-007 1.46346e-006 -1.0093e-006 -10.5777 18.2969 1.84979 8.61322e-007 -3.22962e-006 -3.00633 8.02923 -4.95143 0.697649 13.848 -24.9021 43.5049 57.6778 39.1918 -168.144 -1.91826e-007 9.45429e-007 3.62357e-006 23.27 15.5152 -8.71441 5.50518e-006 -5.42937e-006 3.00953 -8.02894 -4.95143 -0.69768 179.385 8.56486 -2.23551 180 7.01593e-015 179.145 178.774 3.87361 179.939 -1.98412e-006 2.66227e-006 0.0401448 -18.8049 68.1764 19.6897 8.1365 25.2327 -3.48774 -171.763 6.26666 -1.72331 4.54188e-006 -4.6773e-006 -0.933795 -1.90053 -5.34157 0.0333934 -1.35771e-006 1.24203e-006 -0.0753964 19.018 68.5482 -19.9858 -8.13649 25.2327 3.48774 
